<?xml version="1.0" standalone="no"?>
<!DOCTYPE svg PUBLIC "-//W3C//DTD SVG 20010904//EN"
 "http://www.w3.org/TR/2001/REC-SVG-20010904/DTD/svg10.dtd">
<svg version="1.0" xmlns="http://www.w3.org/2000/svg"
 width="256.000000pt" height="256.000000pt" viewBox="0 0 256.000000 256.000000"
 preserveAspectRatio="xMidYMid meet">

<g transform="translate(0.000000,256.000000) scale(0.100000,-0.100000)"
fill="#000000" stroke="none">
<path d="M1157 2159 c-207 -30 -408 -143 -550 -307 -67 -78 -157 -253 -181
-352 -67 -281 12 -588 206 -804 49 -56 160 -146 178 -146 5 0 69 83 144 185
l135 184 -126 3 -125 3 104 130 c156 196 238 302 238 310 0 4 -88 4 -196 0
-133 -5 -194 -4 -190 3 3 6 202 167 441 358 239 191 432 350 430 354 -9 15
-201 69 -278 80 -89 11 -147 11 -230 -1z"/>
<path d="M1620 1797 l-146 -212 184 -5 185 -5 -243 -230 -242 -230 167 -5 168
-5 -324 -252 c-431 -335 -465 -364 -447 -374 49 -28 202 -61 303 -66 430 -21
794 244 908 662 18 65 21 106 21 220 -1 122 -4 151 -27 228 -42 136 -99 241
-194 354 -44 52 -142 134 -159 132 -5 0 -74 -96 -154 -212z"/>
</g>
</svg>
